# xmcd CD database file
#
# Track frame offsets:
#        150
#        15143
#        29732
#        47950
#        65900
#        79822
#        98690
#        115713
#        130087
#        147303
#        165240
#        187205
#
# Disc length: 2700 seconds
#
# Revision: 0
# Processed by: cddbd v1.5.2PL0 Copyright (c) Steve Scherf et al.
# Submitted via: CUERipper 2.1.4
#
DISCID=a00a8a0c
DTITLE=Christophe Maé - Je Veux Du Bonheur
DYEAR=2013
DGENRE=
TTITLE0=Je veux du bonheur
TTITLE1=Ma douleur, ma peine
TTITLE2=Tombé sous le charme
TTITLE3=Charly
TTITLE4=La poupée
TTITLE5=A l'abri
TTITLE6=L'automne
TTITLE7=Ma jolie
TTITLE8=Ne t'en fais pas
TTITLE9=L'olivier
TTITLE10=It's only mystery
TTITLE11=Les caïds (bonus)
EXTD=
EXTT0=
EXTT1=
EXTT2=
EXTT3=
EXTT4=
EXTT5=
EXTT6=
EXTT7=
EXTT8=
EXTT9=
EXTT10=
EXTT11=
PLAYORDER=
